<?xml version="1.0" encoding="UTF-8"?>
<svg version="1.1" xmlns="http://www.w3.org/2000/svg" width="1000" height="1000">
<path d="M0 0 C330 0 660 0 1000 0 C1000 330 1000 660 1000 1000 C670 1000 340 1000 0 1000 C0 670 0 340 0 0 Z " fill="#F89455" transform="translate(0,0)"/>
<path d="M0 0 C330 0 660 0 1000 0 C1000 330 1000 660 1000 1000 C670 1000 340 1000 0 1000 C0 670 0 340 0 0 Z M360.51464844 57.14599609 C357.67418376 58.11065099 354.82530537 59.04836562 351.9765625 59.98828125 C319.50390028 70.82887875 288.19494372 85.07663537 259 103 C258.11618652 103.54124512 257.23237305 104.08249023 256.32177734 104.64013672 C244.07389928 112.18465935 232.33194147 120.14330529 221 129 C219.79997354 129.92381962 218.59945762 130.84700381 217.3984375 131.76953125 C205.48068475 140.97377914 194.08263501 150.80835257 183 161 C182.07453369 161.84981445 182.07453369 161.84981445 181.13037109 162.71679688 C179.01930805 164.65991736 176.91509797 166.61022504 174.8125 168.5625 C174.14686035 169.17585205 173.4812207 169.7892041 172.79541016 170.42114258 C168.83689116 174.11631816 165.19597149 177.9579202 161.67260742 182.0690918 C159.62251315 184.43578214 157.47885364 186.70001812 155.32177734 188.96875 C148.87789666 195.75894673 143.00713294 202.84025639 137.32958984 210.27636719 C136.02749749 211.96435323 134.70134088 213.62949207 133.36328125 215.2890625 C120.49948226 231.27857828 109.22859836 248.22128747 99 266 C98.57799316 266.72832031 98.15598633 267.45664062 97.72119141 268.20703125 C63.35330984 327.76895193 43.87640471 392.74445234 37 461 C36.8954248 461.98734131 36.79084961 462.97468262 36.68310547 463.99194336 C28.62636635 551.05228796 49.73393606 638.70676413 89 716 C89.85513184 717.68730225 89.85513184 717.68730225 90.72753906 719.40869141 C98.72288786 735.03159334 107.96283154 749.61449832 118 764 C118.58313965 764.83821289 119.1662793 765.67642578 119.76708984 766.54003906 C129.31209871 780.188432 139.51092647 793.33979066 150.8046875 805.59375 C152.6643189 807.63206484 154.48270663 809.69545346 156.29296875 811.77734375 C159.93153771 815.94528273 163.66108107 820.01941805 167.4375 824.0625 C168.05431641 824.73087891 168.67113281 825.39925781 169.30664062 826.08789062 C173.07425628 830.12210135 176.98090507 833.84870268 181.19238281 837.41821289 C182.99361524 838.9944129 184.65638407 840.64810763 186.3125 842.375 C189.96594465 846.08617402 193.95146046 849.30703395 198.0078125 852.56640625 C200.52671351 854.61506856 202.99065395 856.71173557 205.44165039 858.84057617 C224.02798305 874.90524753 244.72632245 888.75785349 266 901 C266.67434082 901.38865234 267.34868164 901.77730469 268.04345703 902.17773438 C287.07284083 913.08176883 306.66276506 922.78327049 327 931 C327.89283691 931.36303223 328.78567383 931.72606445 329.70556641 932.10009766 C372.04912874 949.1352096 416.67494508 958.70017893 462 963 C463.44064819 963.14791992 463.44064819 963.14791992 464.91040039 963.29882812 C476.18203143 964.33375949 487.50311879 964.24381566 498.8125 964.25 C499.92292664 964.25067474 501.03335327 964.25134949 502.1774292 964.25204468 C520.65487524 964.23426928 538.67052831 963.42027337 557 961 C558.23008789 960.84966309 559.46017578 960.69932617 560.72753906 960.54443359 C644.72946367 950.09573127 727.17314991 914.46540521 792.25585938 860.43994141 C794.71166737 858.41245602 797.20322868 856.42994304 799.6875 854.4375 C805.45235693 849.71531525 810.88051985 844.6580645 816.31640625 839.56591797 C818.0219342 837.9795989 819.74254077 836.41142725 821.46875 834.84765625 C826.7288927 830.07230554 831.83727971 825.31003017 836.40234375 819.84765625 C838.13238888 817.84689502 839.97544742 816.02757539 841.875 814.1875 C845.86477288 810.25946442 849.34931909 806.01130045 852.8515625 801.6484375 C854.66220885 799.41640436 856.51707887 797.26180661 858.4375 795.125 C863.25840636 789.65321612 867.63761131 783.83834012 872 778 C872.50337891 777.32646484 873.00675781 776.65292969 873.52539062 775.95898438 C915.40396538 719.6217155 945.13535466 652.31797231 957 583 C957.1645166 582.05898438 957.3290332 581.11796875 957.49853516 580.1484375 C958.82463635 572.45282495 959.96633975 564.74010806 961 557 C961.15388184 555.85740723 961.30776367 554.71481445 961.46630859 553.53759766 C968.12722487 501.65446063 964.73169847 447.91455814 953 397 C952.61787354 395.32478271 952.61787354 395.32478271 952.22802734 393.61572266 C939.4427839 338.6832629 916.01853501 285.42395968 884 239 C883.349104 238.05157227 883.349104 238.05157227 882.68505859 237.08398438 C875.94491272 227.28938475 868.88793039 217.84674146 861.34912109 208.65332031 C860.13241973 207.16227767 858.93417813 205.65621767 857.73828125 204.1484375 C851.79152366 196.69575423 845.30542858 189.80383309 838.76220703 182.87988281 C837.06304837 181.06725858 835.38489873 179.23787438 833.71484375 177.3984375 C828.95856402 172.16178538 824.22006785 167.07845836 818.78125 162.53125 C816.97565261 160.97906979 815.3391951 159.33902322 813.6875 157.625 C810.02694561 153.89758617 806.01978213 150.66408826 801.94140625 147.40625 C799.62492417 145.51122615 797.37677387 143.58012411 795.13671875 141.59765625 C776.52076346 125.23386094 755.4868078 111.26356179 734 99 C733.14744629 98.51321777 732.29489258 98.02643555 731.41650391 97.52490234 C697.891464 78.53134324 662.92362781 63.90584833 626 53 C624.92427734 52.68192383 623.84855469 52.36384766 622.74023438 52.03613281 C594.147872 43.74937001 564.59198131 39.67602447 535 37 C534.19061478 36.91822006 533.38122955 36.83644012 532.5473175 36.75218201 C526.22492441 36.13289972 519.96444545 35.81588124 513.61328125 35.76171875 C512.649702 35.75197021 511.68612274 35.74222168 510.69334412 35.73217773 C459.80086414 35.32503586 408.95885986 40.64806208 360.51464844 57.14599609 Z " fill="#FEFEFE" transform="translate(0,0)"/>
<path d="M0 0 C6.619545 2.5154271 10.47313167 6.66523879 13.96875 12.703125 C15.56027597 19.38753409 14.81560182 24.8045547 12.15234375 31.08984375 C7.30718822 38.04792425 -0.31330847 41.75855134 -7.59375 45.703125 C-9.83533116 46.93753952 -12.07618969 48.17326699 -14.31640625 49.41015625 C-15.18431793 49.88765572 -15.18431793 49.88765572 -16.06976318 50.37480164 C-22.59981334 53.97179925 -29.06522958 57.68017169 -35.53125 61.390625 C-45.25630507 66.96469481 -54.99892929 72.50628665 -64.77392578 77.99243164 C-69.94657272 80.90404228 -75.0477927 83.90246031 -80.09521484 87.02685547 C-85.93053551 90.31253676 -90.79421302 91.01247586 -97.40625 90.328125 C-100.21992078 89.53933524 -102.70854381 88.49092939 -105.40625 87.328125 C-106.73363136 86.9718279 -108.06594218 86.63220365 -109.40625 86.328125 C-108.95303672 88.39175612 -108.49345894 90.45399007 -108.03125 92.515625 C-107.77601563 93.66417969 -107.52078125 94.81273437 -107.2578125 95.99609375 C-106.53661797 99.21319507 -106.53661797 99.21319507 -105.37182617 101.63354492 C-103.45443307 106.98430793 -104.07972058 112.83013201 -104.09375 118.453125 C-104.07763672 119.7215625 -104.06152344 120.99 -104.04492188 122.296875 C-104.04086225 130.17255623 -104.98994336 136.85357903 -107.40625 144.328125 C-107.68726563 145.49601563 -107.96828125 146.66390625 -108.2578125 147.8671875 C-111.70562594 161.62361488 -118.78036792 174.13200267 -127.40625 185.328125 C-128.00824219 186.12089844 -128.61023438 186.91367187 -129.23046875 187.73046875 C-155.8239459 221.87584611 -193.29667761 243.82796076 -236.34228516 249.40405273 C-251.09083701 251.12888337 -265.79373315 251.1789105 -280.40625 248.328125 C-281.99759766 248.03615234 -281.99759766 248.03615234 -283.62109375 247.73828125 C-310.37991072 242.25677814 -335.11998312 225.50165149 -350.29394531 202.77050781 C-358.87089814 189.50225411 -358.87089814 189.50225411 -358.71875 182.140625 C-358.71488281 181.32207031 -358.71101563 180.50351562 -358.70703125 179.66015625 C-358.38549684 177.16722066 -357.6551806 175.49260632 -356.40625 173.328125 C-355.74625 173.328125 -355.08625 173.328125 -354.40625 173.328125 C-352.36691955 176.19759182 -350.42941552 179.10168446 -348.56640625 182.08789062 C-345.32020928 186.93708579 -342.13642994 189.08947715 -336.40625 190.328125 C-334.00673627 190.52860656 -331.81979877 190.4789718 -329.40625 190.328125 C-330.04691406 189.77125 -330.68757813 189.214375 -331.34765625 188.640625 C-347.80657487 174.11949262 -356.92733847 158.32493215 -359.80078125 136.3046875 C-360.07670597 131.62038418 -359.9012956 128.22006261 -357.03125 124.390625 C-353.22161946 120.58099446 -348.45806473 118.9355206 -343.40625 117.328125 C-343.51582031 116.46316406 -343.62539063 115.59820312 -343.73828125 114.70703125 C-344.18573634 111.15285547 -344.62769798 107.59805115 -345.06787109 104.04296875 C-345.30809899 102.11559922 -345.55087485 100.18854651 -345.79541016 98.26171875 C-346.21256484 94.97198641 -346.62230146 91.68138657 -347.03125 88.390625 C-347.16635986 87.3375415 -347.30146973 86.28445801 -347.44067383 85.19946289 C-349.58792314 67.743914 -349.58792314 67.743914 -345.10546875 60.41015625 C-341.51965933 56.0165093 -336.7482971 53.10880737 -331.40625 51.328125 C-324.81593349 50.75999427 -320.11578413 51.9548056 -314.40625 55.328125 C-311.53125 57.828125 -311.53125 57.828125 -309.40625 60.328125 C-308.849375 60.905625 -308.2925 61.483125 -307.71875 62.078125 C-304.2691738 67.99168419 -304.05848498 75.63011831 -303.46875 82.328125 C-300.78738192 109.3299255 -294.50642114 137.24228765 -272.7578125 155.55859375 C-267.93833539 159.03603185 -262.86861568 161.98711114 -257.40625 164.328125 C-256.7565625 164.6271875 -256.106875 164.92625 -255.4375 165.234375 C-247.49190628 168.43633068 -238.22553343 169.07274015 -230.13671875 166.14453125 C-227.23340459 164.68058687 -224.40775332 163.12044575 -221.58398438 161.50976562 C-216.11447363 158.54200419 -210.39090758 156.03939246 -204.75195312 153.4128418 C-187.17964712 145.10116531 -177.61440392 135.87202553 -170.375 117.74609375 C-169.09155723 114.08186465 -168.21495915 110.44755643 -167.46875 106.640625 C-166.09142923 100.16044365 -162.76347583 96.13457493 -157.40625 92.328125 C-152.92701646 90.08850823 -147.25328282 90.72720631 -142.40625 91.328125 C-137.27365087 93.72173148 -133.64519774 97.73961571 -130.40625 102.328125 C-125.87728886 96.22025997 -123.40625 92.0060122 -123.40625 84.328125 C-129.92125291 81.73221082 -135.66270556 80.80989872 -142.65625 80.890625 C-144.09786499 80.90416016 -144.09786499 80.90416016 -145.56860352 80.91796875 C-155.81222177 81.15948836 -165.46855664 82.93565961 -175.40625 85.328125 C-176.63214844 85.62315918 -177.85804688 85.91819336 -179.12109375 86.22216797 C-183.20129725 87.21319195 -187.27368508 88.23383078 -191.34375 89.265625 C-192.62306396 89.58917969 -193.90237793 89.91273438 -195.22045898 90.24609375 C-207.50676818 93.44935264 -219.30374906 97.73783536 -231.03125 102.578125 C-231.96364502 102.96234619 -232.89604004 103.34656738 -233.85668945 103.74243164 C-247.99927968 109.61097922 -261.86580704 115.80982582 -275.31713867 123.14233398 C-276.42859253 123.74476929 -276.42859253 123.74476929 -277.5625 124.359375 C-278.21025391 124.71580078 -278.85800781 125.07222656 -279.52539062 125.43945312 C-281.46751006 126.35706927 -283.31037902 126.87917594 -285.40625 127.328125 C-288.37792254 121.26591302 -288.37792254 121.26591302 -288.48046875 117.87109375 C-286.79054458 113.87058235 -283.37859016 112.6496308 -279.65625 110.828125 C-278.82351563 110.40724609 -277.99078125 109.98636719 -277.1328125 109.55273438 C-249.60455029 95.8481024 -221.21352767 84.06398586 -191.40625 76.328125 C-190.64683105 76.12993164 -189.88741211 75.93173828 -189.10498047 75.72753906 C-184.54979689 74.54667617 -179.98318732 73.42215043 -175.40625 72.328125 C-174.53742188 72.11285156 -173.66859375 71.89757812 -172.7734375 71.67578125 C-155.30417468 67.50628821 -133.62875615 65.99838699 -117.40625 74.328125 C-116.08434266 74.70422322 -114.75332342 75.05557759 -113.40625 75.328125 C-113.42945313 74.77125 -113.45265625 74.214375 -113.4765625 73.640625 C-113.63485457 66.94713187 -113.59171751 60.92705934 -109.09375 55.578125 C-104.81592506 51.99669016 -100.72727283 48.79936569 -95.8203125 46.11328125 C-94.7367749 45.51644531 -93.6532373 44.91960937 -92.53686523 44.3046875 C-91.38001221 43.67304688 -90.22315918 43.04140625 -89.03125 42.390625 C-87.19599055 41.38093114 -85.36179045 40.36933075 -83.52763367 39.3576355 C-82.28500713 38.6723276 -81.04209588 37.98753573 -79.79890442 37.30325317 C-74.12707036 34.18040807 -68.47955557 31.01554804 -62.84375 27.828125 C-61.9269043 27.30984131 -61.01005859 26.79155762 -60.06542969 26.25756836 C-51.55245648 21.43261385 -43.08032935 16.53664276 -34.62280273 11.61523438 C-31.55868093 9.83825342 -28.4861707 8.07757589 -25.40625 6.328125 C-24.556073 5.84362381 -24.556073 5.84362381 -23.6887207 5.34933472 C-21.95170682 4.36490443 -20.20635848 3.3952274 -18.4609375 2.42578125 C-17.42694824 1.84836182 -16.39295898 1.27094238 -15.32763672 0.67602539 C-9.98410914 -1.78942804 -5.5598263 -1.55241903 0 0 Z " fill="#FEFBF9" transform="translate(713.40625,325.671875)"/>
<path d="M0 0 C0.66 0 1.32 0 2 0 C2.44348396 14.25971489 2.65514286 27.3901726 -2 41 C-2.433125 42.31871094 -2.433125 42.31871094 -2.875 43.6640625 C-15.70805357 78.84037898 -45.94290434 105.00612277 -78.8828125 120.91015625 C-97.2689611 129.34749487 -116.47810889 132.55624022 -136.5625 132.625 C-137.30641998 132.63207977 -138.05033997 132.63915955 -138.81680298 132.64645386 C-166.03176587 132.78827095 -190.49991985 123.04981187 -210 104 C-210.71542969 103.31164062 -211.43085938 102.62328125 -212.16796875 101.9140625 C-215.60171448 98.55570839 -215.60171448 98.55570839 -217 97 C-217 96.67 -217 96.34 -217 96 C-216.36723145 95.98541748 -215.73446289 95.97083496 -215.08251953 95.95581055 C-185.39704979 95.19609017 -157.94333261 89.02105721 -130 79 C-128.94280762 78.62810547 -127.88561523 78.25621094 -126.79638672 77.87304688 C-84.75006335 62.99260442 -26.7039735 39.81071393 -1.12109375 1.3984375 C-0.56615234 0.70621094 -0.56615234 0.70621094 0 0 Z " fill="#F89457" transform="translate(595,432)"/>
<path d="M0 0 C0.66644531 0.25523437 1.33289063 0.51046875 2.01953125 0.7734375 C10.48642819 4.41403619 17.38971713 11.80192093 20.94921875 20.25390625 C24.1229579 30.17813819 24.34632813 40.38586074 20 50 C14.85303896 58.96395799 7.86441574 66.68903709 -2.1328125 70.0546875 C-6.32817503 71.08022056 -10.07843186 71.38466281 -14.375 71.375 C-15.49708862 71.37258301 -15.49708862 71.37258301 -16.6418457 71.37011719 C-22.5065773 71.24000242 -26.99757554 70.17736411 -32 67 C-33.03125 66.401875 -34.0625 65.80375 -35.125 65.1875 C-43.47358039 58.83531927 -48.46887805 52.32826456 -51 42 C-52.20988892 29.73554701 -50.72186784 19.47369453 -42.75 9.625 C-31.15311565 -2.42273515 -15.59102241 -6.62834594 0 0 Z " fill="#FEFCFB" transform="translate(617,600)"/>
<path d="M0 0 C8.10238003 5.77856167 13.46962453 13.23699859 16.60546875 22.64453125 C17.44752123 36.35204136 16.64980984 46.66697889 7.5859375 57.60546875 C-0.35761975 65.78404249 -9.49893419 68.91201663 -20.70703125 69.20703125 C-28.74437721 69.20703125 -34.6731232 67.17417581 -41.39453125 62.64453125 C-42.0803125 62.18820312 -42.76609375 61.731875 -43.47265625 61.26171875 C-50.7321613 55.7381823 -55.63247613 46.51257913 -57.39453125 37.64453125 C-58.69166956 27.41155128 -56.36702036 18.18789058 -50.33984375 9.77734375 C-37.19470369 -5.55107217 -18.14995741 -10.27411945 0 0 Z " fill="#FEFCFB" transform="translate(701.39453125,602.35546875)"/>
<path d="M0 0 C5.98125 -0.12375 11.9625 -0.2475 18.125 -0.375 C19.98141113 -0.42962402 21.83782227 -0.48424805 23.75048828 -0.54052734 C36.43304828 -0.7562463 46.35799689 1.28547739 56.5625 9.375 C63.82305486 16.44938679 68.0458289 25.27613138 68.375 35.4375 C67.9933457 46.83942217 63.49417253 55.98469982 55.25 63.8125 C39.94158419 76.47646778 18.18152398 72 0 72 C0 48.24 0 24.48 0 0 Z " fill="#FEFCFA" transform="translate(726,598)"/>
<path d="M0 0 C3.7725075 1.0020723 5.18486861 2.53702739 7.5 5.6640625 C8.27539281 8.72853 8.37490355 11.76398664 8.5 14.9140625 C9.0644403 23.35593065 10.24134437 31.49978577 11.9375 39.7890625 C12.14310547 40.80645508 12.34871094 41.82384766 12.56054688 42.87207031 C14.58533157 52.58024645 16.68414961 61.9619693 21.3125 70.7890625 C21.66578369 71.47500488 22.01906738 72.16094727 22.38305664 72.86767578 C32.1108841 91.47724106 45.55801774 103.93000728 64.5 112.6640625 C61.06297387 115.71566869 57.37920252 116.76818298 53.0234375 117.890625 C52.2981485 118.08377289 51.5728595 118.27692078 50.82559204 118.47592163 C49.29195364 118.88191681 47.75711551 119.28340346 46.22119141 119.68066406 C43.90047986 120.28245524 41.58498761 120.90177225 39.26953125 121.5234375 C17.66692776 127.2471134 17.66692776 127.2471134 7.51953125 121.59375 C-8.52925414 111.33747577 -17.82109696 98.26876643 -22.78515625 80.02734375 C-23.69592129 75.74226891 -23.80060848 72.02288547 -23.5 67.6640625 C-18.22 66.0140625 -12.94 64.3640625 -7.5 62.6640625 C-6.5106656 56.47064078 -6.5106656 56.47064078 -7.20703125 50.8359375 C-7.38073242 49.96283936 -7.55443359 49.08974121 -7.73339844 48.19018555 C-7.92450195 47.27406494 -8.11560547 46.35794434 -8.3125 45.4140625 C-9.74427711 38.07836112 -10.97958077 30.78771778 -11.75 23.3515625 C-11.82968018 22.60680664 -11.90936035 21.86205078 -11.99145508 21.09472656 C-13.36023171 7.06910763 -13.36023171 7.06910763 -10.625 2.6015625 C-6.86137464 0.26811478 -4.34502173 0.06789096 0 0 Z " fill="#F79558" transform="translate(389.5,389.3359375)"/>
<path d="M0 0 C5.89875 -0.12375 11.7975 -0.2475 17.875 -0.375 C19.71562012 -0.42962402 21.55624023 -0.48424805 23.45263672 -0.54052734 C32.60202928 -0.6988794 39.84582634 -0.47387469 47 6 C51.2920999 10.56497672 52.30077486 14.28753568 52.4375 20.5625 C52.31796998 24.26793073 52.0471062 27.36605638 50.6875 30.8125 C49.66287479 33.85178543 49.66287479 33.85178543 50.98046875 35.73828125 C51.44066406 36.36089844 51.90085937 36.98351562 52.375 37.625 C56.20208579 43.01437561 55.85898612 48.63713988 55 55 C52.95340718 61.7929464 48.61867249 66.73434423 42.39648438 70.11621094 C37.83209416 72.3377273 33.91559793 72.52212297 28.90625 72.390625 C28.16729492 72.38659668 27.42833984 72.38256836 26.66699219 72.37841797 C23.94440364 72.357716 21.22217306 72.30187277 18.5 72.25 C9.3425 72.12625 9.3425 72.12625 0 72 C0 48.24 0 24.48 0 0 Z " fill="#FEFDFC" transform="translate(212,598)"/>
<path d="M0 0 C5.94 0 11.88 0 18 0 C18.33 8.25 18.66 16.5 19 25 C20.629375 22.916875 22.25875 20.83375 23.9375 18.6875 C24.97101865 17.40728115 26.00481454 16.12728599 27.0390625 14.84765625 C28.92562905 12.47371678 30.4263974 10.26527142 31.9609375 7.62109375 C34.10239978 4.15590057 35.54005497 2.19978739 39 0 C46.24418788 -1.31192856 53.71138834 -0.67794424 61 0 C59.40176989 3.32837208 57.56417168 5.91034033 55.1875 8.75 C54.39988281 9.70648437 53.61226563 10.66296875 52.80078125 11.6484375 C50.71889887 14.15464772 48.60273343 16.62949913 46.48046875 19.1015625 C45.27844418 20.52587151 44.07662026 21.95034988 42.875 23.375 C42.28227295 24.05272461 41.6895459 24.73044922 41.07885742 25.42871094 C37.90672361 29.074714 37.90672361 29.074714 36.84765625 33.625 C38.35806253 36.73797294 40.27158615 39.02979683 42.5625 41.625 C43.48189612 42.687749 44.39852097 43.75290115 45.3125 44.8203125 C45.76882813 45.35301758 46.22515625 45.88572266 46.6953125 46.43457031 C49.29556931 49.55448922 51.61666607 52.87455609 53.97265625 56.1796875 C57.00705462 60.40095074 60.16456399 64.52707903 63.3125 68.6640625 C65 71 65 71 65 72 C46.99166066 74.86196102 46.99166066 74.86196102 40.6484375 70.31396484 C36.50608685 66.05234708 33.32335039 61.1819444 30.28808594 56.09228516 C28.92495226 53.78208768 28.92495226 53.78208768 26.6328125 51.04296875 C25 49 25 49 25 47 C24.34 47 23.68 47 23 47 C22.71125 47.598125 22.4225 48.19625 22.125 48.8125 C21 51 21 51 19 54 C18.63648496 56.02542148 18.63648496 56.02542148 18.5859375 58.23046875 C18.55032715 58.95387451 18.5147168 59.67728027 18.47802734 60.42260742 C18.44402832 61.33502197 18.4100293 62.24743652 18.375 63.1875 C18.25125 66.095625 18.1275 69.00375 18 72 C12.06 72 6.12 72 0 72 C0 48.24 0 24.48 0 0 Z " fill="#FEFCFA" transform="translate(388,598)"/>
<path d="M0 0 C14.85 0 29.7 0 45 0 C45 5.61 45 11.22 45 17 C35.76 17 26.52 17 17 17 C17 20.63 17 24.26 17 28 C25.91 28 34.82 28 44 28 C44 33.61 44 39.22 44 45 C35.09 45 26.18 45 17 45 C17 53.91 17 62.82 17 72 C11.39 72 5.78 72 0 72 C0 48.24 0 24.48 0 0 Z " fill="#FEFCFB" transform="translate(515,598)"/>
<path d="M0 0 C5.61 0 11.22 0 17 0 C17 18.15 17 36.3 17 55 C26.24 55 35.48 55 45 55 C45 60.61 45 66.22 45 72 C30.15 72 15.3 72 0 72 C0 48.24 0 24.48 0 0 Z " fill="#FEFDFC" transform="translate(305,598)"/>
<path d="M0 0 C3.24537511 0.06211244 4.80252387 0.33715406 7.8125 1.75 C10.24649577 4.9691557 10.34548436 7.0528508 10.4140625 10.99609375 C8.37420891 18.11158304 -0.26271431 21.5017438 -6.1875 24.875 C-7.24783447 25.48633789 -8.30816895 26.09767578 -9.40063477 26.72753906 C-17.33979212 31.28239693 -25.35781662 35.68510148 -33.41162109 40.03320312 C-42.79283305 45.110054 -52.04666958 50.4300855 -61.08984375 56.08984375 C-63.25 57.3125 -63.25 57.3125 -65.25 57.3125 C-65.45625 56.136875 -65.6625 54.96125 -65.875 53.75 C-66.92069338 49.42113695 -68.94226465 46.91136651 -72.0078125 43.7578125 C-73.25 42.3125 -73.25 42.3125 -73.25 40.3125 C-72.61835937 39.96171387 -71.98671875 39.61092773 -71.3359375 39.24951172 C-56.48748149 30.99353483 -41.75186502 22.57511857 -27.09814453 13.97753906 C-21.70482322 10.82457735 -16.28972166 7.70896931 -10.87158203 4.59887695 C-3.0599088 0.09625541 -3.0599088 0.09625541 0 0 Z " fill="#F79558" transform="translate(706.25,336.6875)"/>
<path d="M0 0 C5.94 0 11.88 0 18 0 C18 23.76 18 47.52 18 72 C12.06 72 6.12 72 0 72 C0 48.24 0 24.48 0 0 Z " fill="#FEFBF9" transform="translate(357,598)"/>
<path d="M0 0 C5.94 0 11.88 0 18 0 C18 23.76 18 47.52 18 72 C12.06 72 6.12 72 0 72 C0 48.24 0 24.48 0 0 Z " fill="#FEFAF8" transform="translate(274,598)"/>
<path d="M0 0 C5.65967804 2.5823626 8.92615463 6.22294208 11.9921875 11.625 C13.72172863 18.38593352 13.10671351 24.16748784 9.6796875 30.3125 C5.68994877 35.21417901 0.69374492 38.70018616 -5.625 39.6640625 C-11.97340042 39.89918844 -16.0394179 38.2132455 -20.9453125 34.125 C-25.73224926 28.4562591 -28.09763036 23.29934313 -27.7734375 15.7734375 C-26.77286383 10.3392874 -23.72679116 6.61606558 -19.7578125 2.9375 C-13.52106803 -1.22032965 -7.33165975 -2.17234363 0 0 Z " fill="#FEFBF9" transform="translate(440.3203125,274.6875)"/>
<path d="M0 0 C6.05388998 -0.42580878 9.3773893 0.65203081 13.98828125 4.6015625 C18.59240884 9.10999229 20.80883741 12.52219122 20.9296875 19.0078125 C20.84947135 25.13097862 19.34726357 29.32693494 15.3046875 34.0078125 C9.21406568 39.22834549 4.93490656 39.79597277 -3 39.60546875 C-8.69757212 39.00889943 -11.44619621 36.34922172 -15.0703125 32.2578125 C-19.51208072 26.33545488 -20.30905584 21.61732476 -19.3203125 14.2578125 C-17.11615227 8.63862289 -13.2667838 4.5891095 -8.3203125 1.2578125 C-5.50941083 0.42731882 -2.8954987 0.32172208 0 0 Z " fill="#FEFCFA" transform="translate(393.3203125,317.7421875)"/>
<path d="M0 0 C5.61 0 11.22 0 17 0 C17 23.76 17 47.52 17 72 C11.39 72 5.78 72 0 72 C0 48.24 0 24.48 0 0 Z " fill="#FEFDFD" transform="translate(458,598)"/>
<path d="M0 0 C5.15928084 2.93370872 8.48211738 6.56132195 11.1875 11.8125 C12.14874851 17.62004306 12.05663451 23.17311137 9 28.3125 C5.62345536 32.8969916 1.74946592 36.2956002 -3.8125 37.8125 C-9.52502381 38.41660734 -13.99058545 38.19809958 -18.8125 34.8125 C-27.88400632 25.79139093 -27.88400632 25.79139093 -28.125 18.625 C-28.0289562 12.708702 -26.19000052 8.29806872 -22.09375 4.015625 C-15.4382502 -1.90664177 -8.48466582 -2.64276476 0 0 Z " fill="#F89559" transform="translate(610.8125,616.1875)"/>
<path d="M0 0 C5.4625717 4.60272245 7.38273343 9.27262043 8.0625 16.296875 C7.89963623 21.62048456 5.86764799 26.06253676 2.26171875 29.96484375 C-2.80191375 34.42659746 -7.35136355 35.91755909 -13.9765625 35.73046875 C-20.64720135 34.84923051 -24.9860342 31.23562146 -29.18359375 26.203125 C-32.1509132 21.52112614 -31.75424953 15.76534527 -31.3125 10.421875 C-29.50066443 4.64664911 -25.19128048 0.82110209 -20.3125 -2.578125 C-13.13721131 -5.0558195 -6.14636671 -4.41150514 0 0 Z " fill="#F89558" transform="translate(693.3125,618.578125)"/>
<path d="M0 0 C20.52631579 0 20.52631579 0 26.75 5.375 C31.08815729 10.4361835 32.58294761 13.68352722 32.34375 20.37109375 C31.67252342 25.50445153 30.08538098 30.01414856 26.28125 33.63671875 C17.40487077 40.19997374 12.93213413 38 0 38 C0 25.46 0 12.92 0 0 Z " fill="#F79456" transform="translate(744,615)"/>
<path d="M0 0 C2.875 0.875 2.875 0.875 4.875 2.875 C5.05560428 5.66104307 5.14489504 8.39943155 5.1875 11.1875 C5.63022726 23.09141789 8.93604347 32.31872384 16.6171875 41.55859375 C18.32956743 44.71213816 17.85280152 46.48994427 16.875 49.875 C14.875 51.875 14.875 51.875 12.1875 52.5 C6.92842424 51.50772156 4.81410101 48.15787917 1.875 43.875 C-5.33991057 32.02434082 -9.27056106 17.77891145 -7.125 3.875 C-4.71695736 0.66598795 -4.08042552 -0.16321702 0 0 Z " fill="#FEFAF8" transform="translate(445.125,371.125)"/>
<path d="M0 0 C2 2 2 2 2.38671875 4.2734375 C1.8583662 7.9985898 0.19688674 9.73884183 -2.1875 12.625 C-9.21968116 21.60565836 -12.62375315 29.11389537 -12.54882812 40.51855469 C-12.5792675 43.94298445 -12.7762974 45.70328986 -14.8671875 48.4765625 C-17 50 -17 50 -19.5625 49.9375 C-22.26661326 48.89745644 -23.29405628 48.32628689 -25 46 C-27.12637867 30.54065239 -21.5042053 16.94862753 -12.28515625 4.7265625 C-8.0410171 -0.35810298 -6.47525065 -1.48391161 0 0 Z " fill="#FEFAF7" transform="translate(467,307)"/>
<path d="M0 0 C3.125 1.6875 3.125 1.6875 5 5 C5.68323028 9.44669039 5.72999697 13.55728408 5 18 C2.625 21.1875 2.625 21.1875 0 23 C-0.66 23.66 -1.32 24.32 -2 25 C-8.1977058 24.77462888 -8.1977058 24.77462888 -10.8125 22.25 C-12.06062456 19.88513241 -13.05417353 17.49968424 -14 15 C-14.33 14.67 -14.66 14.34 -15 14 C-15.67266188 9.34902355 -15.60616275 5.99006582 -13.125 1.9375 C-8.70242399 -0.80449712 -5.06766354 -0.97199448 0 0 Z " fill="#F8975B" transform="translate(392,390)"/>
<path d="M0 0 C3.1875 0.3125 3.1875 0.3125 5.1875 1.8125 C7.1875 4.3125 7.1875 4.3125 8.4140625 6.21875 C11.93577448 11.49148078 14.97337761 13.56428456 21.015625 15.5234375 C23.1875 16.3125 23.1875 16.3125 25.1875 18.3125 C25.4375 21.3125 25.4375 21.3125 25.1875 24.3125 C23.1875 26.3125 23.1875 26.3125 19.5 26.625 C11.2502641 26.357441 5.71488851 22.09375604 0.1875 16.3125 C-3.15622559 12.28896259 -4.8567146 9.70526003 -4.6875 4.375 C-3.55020492 0.39446721 -3.55020492 0.39446721 0 0 Z " fill="#FEFBF8" transform="translate(398.8125,480.6875)"/>
<path d="M0 0 C3.10468645 -0.08083562 6.20727569 -0.14041718 9.3125 -0.1875 C10.19357422 -0.21263672 11.07464844 -0.23777344 11.98242188 -0.26367188 C13.25375977 -0.27817383 13.25375977 -0.27817383 14.55078125 -0.29296875 C15.72120972 -0.31653442 15.72120972 -0.31653442 16.9152832 -0.34057617 C19.55548706 0.09074885 20.41540943 0.87613297 22 3 C22.64237591 8.13900724 22.64237591 8.13900724 20.75463867 10.66918945 C18.526935 12.35879746 17.3234666 12.34879463 14.55078125 12.29296875 C13.70322266 12.28330078 12.85566406 12.27363281 11.98242188 12.26367188 C10.66081055 12.2259668 10.66081055 12.2259668 9.3125 12.1875 C8.41982422 12.17396484 7.52714844 12.16042969 6.60742188 12.14648438 C4.40469017 12.11114643 2.2022688 12.05733969 0 12 C0 8.04 0 4.08 0 0 Z " fill="#F89659" transform="translate(229,641)"/>
<path d="M0 0 C2.4375 1.5 2.4375 1.5 4 4 C4.07742423 8.87772653 4.09236427 10.78797745 0.7890625 14.453125 C-1.98184573 16.98342215 -4.7896621 19.42860334 -7.6875 21.8125 C-8.64011719 22.60269531 -9.59273437 23.39289063 -10.57421875 24.20703125 C-13 26 -13 26 -15 26 C-14.3503125 24.205625 -14.3503125 24.205625 -13.6875 22.375 C-11.87439724 17.02932614 -10.85852637 11.58409053 -9.84375 6.0390625 C-8.27202541 0.37794336 -5.77149994 -0.82449999 0 0 Z " fill="#F8985D" transform="translate(567,429)"/>
<path d="M0 0 C2.4375 1.625 2.4375 1.625 4 4 C4.55921637 7.91451456 4.63274809 10.0382229 2.4375 13.375 C-0.82839428 15.55226285 -3.07983866 16 -7 16 C-9.9375 14.625 -9.9375 14.625 -12 12 C-12.7091166 8.85221411 -12.7091166 6.14778589 -12 3 C-8.42324245 -1.55223688 -5.38017918 -1.56514303 0 0 Z " fill="#F8985C" transform="translate(398,330)"/>
<path d="M0 0 C2.5625 1.5625 2.5625 1.5625 4 4 C4.72125695 8.40768137 4.52001338 10.25937488 1.9375 13.9375 C-1.74062512 16.52001338 -3.59231863 16.72125695 -8 16 C-10.4375 14.5625 -10.4375 14.5625 -12 12 C-12.60633533 8.18284349 -13.07556219 4.50578706 -10.75 1.25 C-7.49421294 -1.07556219 -3.81715651 -0.60633533 0 0 Z " fill="#F8985C" transform="translate(437,286)"/>
<path d="M0 0 C2.79192205 -0.05380578 5.5828141 -0.09357669 8.375 -0.125 C9.1690625 -0.14175781 9.963125 -0.15851562 10.78125 -0.17578125 C12.85492015 -0.19335473 14.92883241 -0.10335168 17 0 C19 2 19 2 19.25 5 C19 8 19 8 17 10 C14.0906442 10.14517744 11.280054 10.18630796 8.375 10.125 C7.57320312 10.11597656 6.77140625 10.10695313 5.9453125 10.09765625 C3.96341477 10.07406223 1.98167019 10.03819065 0 10 C0 6.7 0 3.4 0 0 Z " fill="#F79558" transform="translate(229,615)"/>
<path d="M0 0 C2.7912125 1.98322993 3.82597224 3.12986121 4.5 6.5 C3.82597224 9.87013879 2.7912125 11.01677007 0 13 C-3.17235276 13.45319325 -5.06487736 13.52990283 -7.875 11.9375 C-9.64273274 8.8930714 -9.36823916 6.4368988 -9 3 C-6.84532543 -0.71082843 -4.00794956 -0.57256422 0 0 Z " fill="#FEF7F2" transform="translate(382,461)"/>
<path d="M0 0 C2.38460953 2.07691798 2.8959746 3.40556916 3.4375 6.5 C3 9 3 9 1.4375 11.375 C-1 13 -1 13 -4.625 12.9375 C-8 12 -8 12 -10 9 C-10.32162076 5.9124407 -10.48724515 3.85984439 -8.9375 1.125 C-5.85928089 -0.66235303 -3.47093932 -0.43386742 0 0 Z " fill="#FEF7F3" transform="translate(391,402)"/>
<path d="M0 0 C1.875 1.125 1.875 1.125 3 3 C3.54624158 6.66762206 3.47898298 8.3258758 1.3125 11.375 C-1 13 -1 13 -3.5 13.5 C-6 13 -6 13 -8.375 11.4375 C-10 9 -10 9 -9.9375 5.375 C-8.3868786 -0.20723702 -5.30716391 -0.55282957 0 0 Z " fill="#FEF7F3" transform="translate(466,461)"/>
<path d="M0 0 C3.375 0.875 3.375 0.875 5.375 2.875 C6.0450702 9.01731015 6.0450702 9.01731015 3.8125 11.875 C0.32357191 13.30635511 -2.02255972 12.808966 -5.625 11.875 C-7.79051116 8.62673326 -8.17656953 7.64405843 -7.625 3.875 C-5.27446179 0.30218192 -4.32956596 -0.14929538 0 0 Z " fill="#FEF7F4" transform="translate(425.625,410.125)"/>
<path d="M0 0 C3.50117898 0.06765563 4.60456748 0.32316717 7.6875 2.25 C10.02093332 4.7292729 10.60350117 5.75900855 11.0625 9.125 C10.54426994 13.61632722 9.03004471 15.38804516 5.6875 18.375 C1.875 18.75 1.875 18.75 -1.3125 18.375 C-0.508125 17.735625 0.29625 17.09625 1.125 16.4375 C2.9625504 14.96896498 2.9625504 14.96896498 4.6875 13.375 C4.93755386 10.41682893 4.93755386 10.41682893 4.6875 7.375 C4.0275 6.715 3.3675 6.055 2.6875 5.375 C-0.84467579 5.69610689 -3.94699506 6.25316502 -7.3125 7.375 C-6.48770396 2.15129175 -5.50038986 0.09244353 0 0 Z " fill="#F89B61" transform="translate(619.3125,385.625)"/>
<path d="M0 0 C2.5 0.5 2.5 0.5 4.875 2.0625 C6.5 4.5 6.5 4.5 6.4375 8.125 C5.5 11.5 5.5 11.5 2.5 13.5 C-0.62026907 13.82502803 -2.64747535 14.01151479 -5.375 12.375 C-7.05468045 9.57553259 -6.95742277 7.70195936 -6.5 4.5 C-4.51677007 1.7087875 -3.37013879 0.67402776 0 0 Z " fill="#FEF8F4" transform="translate(425.5,357.5)"/>
<path d="M0 0 C3.5625 0.3125 3.5625 0.3125 5.5 1.4375 C7.06672245 4.20230433 6.95226435 6.19438517 6.5625 9.3125 C5.5 11.1875 5.5 11.1875 3.5625 12.3125 C0.0625 12.75 0.0625 12.75 -3.4375 12.3125 C-5.4375 10.6875 -5.4375 10.6875 -6.4375 8.3125 C-6.12371717 3.0827861 -5.61102633 0.5100933 0 0 Z " fill="#FEF9F6" transform="translate(360.4375,357.6875)"/>
</svg>
