<?xml version="1.0" encoding="UTF-8"?>
<svg version="1.1" xmlns="http://www.w3.org/2000/svg" width="128" height="128">
<path d="M0 0 C0.83123383 0.00404846 1.66246765 0.00809692 2.51889038 0.01226807 C3.3937912 0.00876343 4.26869202 0.00525879 5.17010498 0.00164795 C8.07160296 -0.00717824 10.97285852 -0.00131709 13.87435913 0.00543213 C15.88453214 0.00408573 17.89470482 0.00214542 19.90487671 -0.00036621 C24.12162368 -0.00331868 28.33828604 0.00098411 32.55502319 0.01031494 C37.96928137 0.02170952 43.38334127 0.01515071 48.79759216 0.00317001 C52.94961042 -0.00404527 57.10158142 -0.00176218 61.25360107 0.0034256 C63.25036645 0.00476301 65.24713607 0.00311119 67.24389648 -0.00153351 C70.03098983 -0.0065933 72.81775879 0.00110375 75.60482788 0.01226807 C76.43606171 0.0082196 77.26729553 0.00417114 78.12371826 0 C83.83333114 0.04252914 83.83333114 0.04252914 86.06185913 2.27105713 C86.46017944 3.46601807 86.46017944 3.46601807 86.86654663 4.68511963 C88.38901752 7.97883115 90.11535274 8.78215154 93.18685913 10.64605713 C96.87522552 13.39113442 97.93360483 14.51832654 98.71810913 19.12261963 C98.79523849 22.87181559 98.49799011 26.54940613 98.06185913 30.27105713 C95.75185913 30.60105713 93.44185913 30.93105713 91.06185913 31.27105713 C91.56717163 31.54176025 92.07248413 31.81246338 92.59310913 32.09136963 C94.96734136 33.66476956 96.43628643 34.90806924 98.06185913 37.27105713 C98.68602075 41.99160722 98.47045118 46.53657782 98.06185913 51.27105713 C95.75185913 51.93105713 93.44185913 52.59105713 91.06185913 53.27105713 C92.21685913 53.78668213 93.37185913 54.30230713 94.56185913 54.83355713 C96.50326538 56.16168213 96.50326538 56.16168213 98.06185913 58.27105713 C98.70293317 63.33500335 98.46418773 68.1940534 98.06185913 73.27105713 C96.08185913 73.93105713 94.10185913 74.59105713 92.06185913 75.27105713 C93.05185913 75.78668213 94.04185913 76.30230713 95.06185913 76.83355713 C97.86107418 79.07951555 98.06037962 80.25864786 98.49545288 83.90777588 C98.56508736 87.71888901 98.42738936 91.47694593 98.06185913 95.27105713 C97.06185913 96.27105713 97.06185913 96.27105713 93.49935913 96.33355713 C92.36498413 96.31293213 91.23060913 96.29230713 90.06185913 96.27105713 C90.63935913 96.53015869 91.21685913 96.78926025 91.81185913 97.05621338 C94.50981503 98.58786543 96.16554498 99.78838268 98.06185913 102.27105713 C98.78473706 107.35777901 98.52919389 112.16931935 98.06185913 117.27105713 C94.10185913 117.27105713 90.14185913 117.27105713 86.06185913 117.27105713 C86.06185913 118.92105713 86.06185913 120.57105713 86.06185913 122.27105713 C83.46236244 124.87055382 81.66502688 124.51573615 78.12371826 124.54211426 C77.29248444 124.5380658 76.46125061 124.53401733 75.60482788 124.52984619 C74.29247665 124.53510315 74.29247665 124.53510315 72.95361328 124.54046631 C70.0521153 124.5492925 67.15085974 124.54343135 64.24935913 124.53668213 C62.23918613 124.53802852 60.22901344 124.53996884 58.21884155 124.54248047 C54.00209458 124.54543294 49.78543222 124.54113014 45.56869507 124.53179932 C40.1544369 124.52040473 34.74037699 124.52696355 29.3261261 124.53894424 C25.17410784 124.54615953 21.02213685 124.54387644 16.87011719 124.53868866 C14.87335181 124.53735124 12.8765822 124.53900307 10.87982178 124.54364777 C8.09272843 124.54870756 5.30595947 124.54101051 2.51889038 124.52984619 C1.68765656 124.53389465 0.85642273 124.53794312 0 124.54211426 C-5.70961288 124.49958512 -5.70961288 124.49958512 -7.93814087 122.27105713 C-8.13345337 119.23199463 -8.13345337 119.23199463 -8.06314087 115.64605713 C-8.04509399 114.4575415 -8.02704712 113.26902588 -8.00845337 112.04449463 C-7.98525024 111.12926025 -7.96204712 110.21402588 -7.93814087 109.27105713 C-9.91814087 109.27105713 -11.89814087 109.27105713 -13.93814087 109.27105713 C-13.93814087 108.28105713 -13.93814087 107.29105713 -13.93814087 106.27105713 C-11.95814087 106.27105713 -9.97814087 106.27105713 -7.93814087 106.27105713 C-7.93814087 101.32105713 -7.93814087 96.37105713 -7.93814087 91.27105713 C-9.91814087 91.27105713 -11.89814087 91.27105713 -13.93814087 91.27105713 C-13.93814087 90.28105713 -13.93814087 89.29105713 -13.93814087 88.27105713 C-11.95814087 88.27105713 -9.97814087 88.27105713 -7.93814087 88.27105713 C-7.93814087 83.32105713 -7.93814087 78.37105713 -7.93814087 73.27105713 C-9.58814087 73.27105713 -11.23814087 73.27105713 -12.93814087 73.27105713 C-12.93814087 71.95105713 -12.93814087 70.63105713 -12.93814087 69.27105713 C-11.28814087 69.27105713 -9.63814087 69.27105713 -7.93814087 69.27105713 C-7.93814087 64.65105713 -7.93814087 60.03105713 -7.93814087 55.27105713 C-9.58814087 55.27105713 -11.23814087 55.27105713 -12.93814087 55.27105713 C-12.93814087 53.95105713 -12.93814087 52.63105713 -12.93814087 51.27105713 C-11.28814087 51.27105713 -9.63814087 51.27105713 -7.93814087 51.27105713 C-7.93814087 46.32105713 -7.93814087 41.37105713 -7.93814087 36.27105713 C-9.91814087 36.27105713 -11.89814087 36.27105713 -13.93814087 36.27105713 C-13.93814087 35.28105713 -13.93814087 34.29105713 -13.93814087 33.27105713 C-11.95814087 33.27105713 -9.97814087 33.27105713 -7.93814087 33.27105713 C-7.93814087 28.32105713 -7.93814087 23.37105713 -7.93814087 18.27105713 C-9.91814087 18.27105713 -11.89814087 18.27105713 -13.93814087 18.27105713 C-13.93814087 17.28105713 -13.93814087 16.29105713 -13.93814087 15.27105713 C-11.95814087 15.27105713 -9.97814087 15.27105713 -7.93814087 15.27105713 C-7.96134399 14.35582275 -7.98454712 13.44058838 -8.00845337 12.49761963 C-8.03552368 10.71484619 -8.03552368 10.71484619 -8.06314087 8.89605713 C-8.08634399 7.71269775 -8.10954712 6.52933838 -8.13345337 5.31011963 C-7.77185282 -0.31638488 -4.94877041 0.03686186 0 0 Z " fill="#E3D5CB" transform="translate(21.938140869140625,1.72894287109375)"/>
<path d="M0 0 C0.83123383 0.00404846 1.66246765 0.00809692 2.51889038 0.01226807 C3.3937912 0.00876343 4.26869202 0.00525879 5.17010498 0.00164795 C8.07160296 -0.00717824 10.97285852 -0.00131709 13.87435913 0.00543213 C15.88453214 0.00408573 17.89470482 0.00214542 19.90487671 -0.00036621 C24.12162368 -0.00331868 28.33828604 0.00098411 32.55502319 0.01031494 C37.96928137 0.02170952 43.38334127 0.01515071 48.79759216 0.00317001 C52.94961042 -0.00404527 57.10158142 -0.00176218 61.25360107 0.0034256 C63.25036645 0.00476301 65.24713607 0.00311119 67.24389648 -0.00153351 C70.03098983 -0.0065933 72.81775879 0.00110375 75.60482788 0.01226807 C76.43606171 0.0082196 77.26729553 0.00417114 78.12371826 0 C83.83333114 0.04252914 83.83333114 0.04252914 86.06185913 2.27105713 C86.46017944 3.46601807 86.46017944 3.46601807 86.86654663 4.68511963 C88.38901752 7.97883115 90.11535274 8.78215154 93.18685913 10.64605713 C96.87522552 13.39113442 97.93360483 14.51832654 98.71810913 19.12261963 C98.79523849 22.87181559 98.49799011 26.54940613 98.06185913 30.27105713 C95.75185913 30.60105713 93.44185913 30.93105713 91.06185913 31.27105713 C91.56717163 31.54176025 92.07248413 31.81246338 92.59310913 32.09136963 C94.96734136 33.66476956 96.43628643 34.90806924 98.06185913 37.27105713 C98.68602075 41.99160722 98.47045118 46.53657782 98.06185913 51.27105713 C95.75185913 51.93105713 93.44185913 52.59105713 91.06185913 53.27105713 C92.21685913 53.78668213 93.37185913 54.30230713 94.56185913 54.83355713 C96.50326538 56.16168213 96.50326538 56.16168213 98.06185913 58.27105713 C98.70293317 63.33500335 98.46418773 68.1940534 98.06185913 73.27105713 C96.08185913 73.93105713 94.10185913 74.59105713 92.06185913 75.27105713 C93.05185913 75.78668213 94.04185913 76.30230713 95.06185913 76.83355713 C97.86107418 79.07951555 98.06037962 80.25864786 98.49545288 83.90777588 C98.56508736 87.71888901 98.42738936 91.47694593 98.06185913 95.27105713 C97.06185913 96.27105713 97.06185913 96.27105713 93.49935913 96.33355713 C92.36498413 96.31293213 91.23060913 96.29230713 90.06185913 96.27105713 C90.63935913 96.53015869 91.21685913 96.78926025 91.81185913 97.05621338 C94.50981503 98.58786543 96.16554498 99.78838268 98.06185913 102.27105713 C98.78473706 107.35777901 98.52919389 112.16931935 98.06185913 117.27105713 C94.10185913 117.27105713 90.14185913 117.27105713 86.06185913 117.27105713 C86.06185913 118.92105713 86.06185913 120.57105713 86.06185913 122.27105713 C83.46236244 124.87055382 81.66502688 124.51573615 78.12371826 124.54211426 C77.29248444 124.5380658 76.46125061 124.53401733 75.60482788 124.52984619 C74.29247665 124.53510315 74.29247665 124.53510315 72.95361328 124.54046631 C70.0521153 124.5492925 67.15085974 124.54343135 64.24935913 124.53668213 C62.23918613 124.53802852 60.22901344 124.53996884 58.21884155 124.54248047 C54.00209458 124.54543294 49.78543222 124.54113014 45.56869507 124.53179932 C40.1544369 124.52040473 34.74037699 124.52696355 29.3261261 124.53894424 C25.17410784 124.54615953 21.02213685 124.54387644 16.87011719 124.53868866 C14.87335181 124.53735124 12.8765822 124.53900307 10.87982178 124.54364777 C8.09272843 124.54870756 5.30595947 124.54101051 2.51889038 124.52984619 C1.68765656 124.53389465 0.85642273 124.53794312 0 124.54211426 C-5.70961288 124.49958512 -5.70961288 124.49958512 -7.93814087 122.27105713 C-8.13345337 119.23199463 -8.13345337 119.23199463 -8.06314087 115.64605713 C-8.04509399 114.4575415 -8.02704712 113.26902588 -8.00845337 112.04449463 C-7.98525024 111.12926025 -7.96204712 110.21402588 -7.93814087 109.27105713 C-9.91814087 109.27105713 -11.89814087 109.27105713 -13.93814087 109.27105713 C-13.93814087 108.28105713 -13.93814087 107.29105713 -13.93814087 106.27105713 C-11.95814087 106.27105713 -9.97814087 106.27105713 -7.93814087 106.27105713 C-7.93814087 101.32105713 -7.93814087 96.37105713 -7.93814087 91.27105713 C-9.91814087 91.27105713 -11.89814087 91.27105713 -13.93814087 91.27105713 C-13.93814087 90.28105713 -13.93814087 89.29105713 -13.93814087 88.27105713 C-11.95814087 88.27105713 -9.97814087 88.27105713 -7.93814087 88.27105713 C-7.93814087 83.32105713 -7.93814087 78.37105713 -7.93814087 73.27105713 C-9.58814087 73.27105713 -11.23814087 73.27105713 -12.93814087 73.27105713 C-12.93814087 71.95105713 -12.93814087 70.63105713 -12.93814087 69.27105713 C-11.28814087 69.27105713 -9.63814087 69.27105713 -7.93814087 69.27105713 C-7.93814087 64.65105713 -7.93814087 60.03105713 -7.93814087 55.27105713 C-9.58814087 55.27105713 -11.23814087 55.27105713 -12.93814087 55.27105713 C-12.93814087 53.95105713 -12.93814087 52.63105713 -12.93814087 51.27105713 C-11.28814087 51.27105713 -9.63814087 51.27105713 -7.93814087 51.27105713 C-7.93814087 46.32105713 -7.93814087 41.37105713 -7.93814087 36.27105713 C-9.91814087 36.27105713 -11.89814087 36.27105713 -13.93814087 36.27105713 C-13.93814087 35.28105713 -13.93814087 34.29105713 -13.93814087 33.27105713 C-11.95814087 33.27105713 -9.97814087 33.27105713 -7.93814087 33.27105713 C-7.93814087 28.32105713 -7.93814087 23.37105713 -7.93814087 18.27105713 C-9.91814087 18.27105713 -11.89814087 18.27105713 -13.93814087 18.27105713 C-13.93814087 17.28105713 -13.93814087 16.29105713 -13.93814087 15.27105713 C-11.95814087 15.27105713 -9.97814087 15.27105713 -7.93814087 15.27105713 C-7.96134399 14.35582275 -7.98454712 13.44058838 -8.00845337 12.49761963 C-8.03552368 10.71484619 -8.03552368 10.71484619 -8.06314087 8.89605713 C-8.08634399 7.71269775 -8.10954712 6.52933838 -8.13345337 5.31011963 C-7.77185282 -0.31638488 -4.94877041 0.03686186 0 0 Z M-4.93814087 3.27105713 C-4.93814087 7.23105713 -4.93814087 11.19105713 -4.93814087 15.27105713 C-3.28814087 15.27105713 -1.63814087 15.27105713 0.06185913 15.27105713 C0.06185913 16.26105713 0.06185913 17.25105713 0.06185913 18.27105713 C-1.58814087 18.27105713 -3.23814087 18.27105713 -4.93814087 18.27105713 C-4.93814087 23.22105713 -4.93814087 28.17105713 -4.93814087 33.27105713 C-3.28814087 33.27105713 -1.63814087 33.27105713 0.06185913 33.27105713 C0.06185913 34.26105713 0.06185913 35.25105713 0.06185913 36.27105713 C-1.58814087 36.27105713 -3.23814087 36.27105713 -4.93814087 36.27105713 C-4.93814087 41.55105713 -4.93814087 46.83105713 -4.93814087 52.27105713 C-3.28814087 52.27105713 -1.63814087 52.27105713 0.06185913 52.27105713 C0.06185913 52.93105713 0.06185913 53.59105713 0.06185913 54.27105713 C-1.58814087 54.27105713 -3.23814087 54.27105713 -4.93814087 54.27105713 C-4.93814087 59.55105713 -4.93814087 64.83105713 -4.93814087 70.27105713 C-3.28814087 70.27105713 -1.63814087 70.27105713 0.06185913 70.27105713 C0.06185913 70.93105713 0.06185913 71.59105713 0.06185913 72.27105713 C-1.58814087 72.27105713 -3.23814087 72.27105713 -4.93814087 72.27105713 C-4.93814087 77.55105713 -4.93814087 82.83105713 -4.93814087 88.27105713 C-3.28814087 88.27105713 -1.63814087 88.27105713 0.06185913 88.27105713 C0.06185913 89.26105713 0.06185913 90.25105713 0.06185913 91.27105713 C-1.58814087 91.27105713 -3.23814087 91.27105713 -4.93814087 91.27105713 C-4.93814087 96.22105713 -4.93814087 101.17105713 -4.93814087 106.27105713 C-3.28814087 106.27105713 -1.63814087 106.27105713 0.06185913 106.27105713 C0.06185913 107.26105713 0.06185913 108.25105713 0.06185913 109.27105713 C-1.58814087 109.27105713 -3.23814087 109.27105713 -4.93814087 109.27105713 C-4.93814087 113.23105713 -4.93814087 117.19105713 -4.93814087 121.27105713 C24.10185913 121.27105713 53.14185913 121.27105713 83.06185913 121.27105713 C83.06185913 82.33105713 83.06185913 43.39105713 83.06185913 3.27105713 C54.02185913 3.27105713 24.98185913 3.27105713 -4.93814087 3.27105713 Z " fill="#121210" transform="translate(21.938140869140625,1.72894287109375)"/>
<path d="M0 0 C28.71 0 57.42 0 87 0 C87 38.94 87 77.88 87 118 C57.96 118 28.92 118 -1 118 C-1 114.04 -1 110.08 -1 106 C0.65 106 2.3 106 4 106 C3.505 106.350625 3.01 106.70125 2.5 107.0625 C0.28579794 109.51412983 0.28579794 109.51412983 1 116 C7.93 116.495 7.93 116.495 15 117 C15 115.35 15 113.7 15 112 C18.49736901 110.83421033 21.55627443 110.9384608 25.1875 111 C33.728493 111.05590135 42.26582864 110.94529919 50.80410767 110.73754883 C52.26849279 110.70417253 53.7330105 110.67618079 55.19760132 110.65356445 C57.27816433 110.6203851 59.35745985 110.56833263 61.4375 110.51171875 C62.65308594 110.48553467 63.86867188 110.45935059 65.12109375 110.43237305 C66.54615234 110.21834839 66.54615234 110.21834839 68 110 C68.99 108.515 68.99 108.515 70 107 C70 108.32 70 109.64 70 111 C75.445 111.495 75.445 111.495 81 112 C81 77.02 81 42.04 81 6 C81.99 6 82.98 6 84 6 C84.33 4.35 84.66 2.7 85 1 C56.95 1 28.9 1 0 1 C0 0.67 0 0.34 0 0 Z " fill="#F7E9DE" transform="translate(18,5)"/>
<path d="M0 0 C1.9375 0.3125 1.9375 0.3125 4 1 C4.495 2.485 4.495 2.485 5 4 C4.01 4 3.02 4 2 4 C1.67 5.98 1.34 7.96 1 10 C3.41645782 10.16687448 3.41645782 10.16687448 6 10 C8.1385485 7.8614515 8.42655063 6.86724686 9 4 C10.9375 4.8125 10.9375 4.8125 13 6 C13.495 7.485 13.495 7.485 14 9 C12.68 9 11.36 9 10 9 C9.63807496 11.12369237 9.28568253 13.2490113 8.9375 15.375 C8.74027344 16.55835937 8.54304688 17.74171875 8.33984375 18.9609375 C7.73065313 21.91450901 7.73065313 21.91450901 9 24 C9.06950541 25.54023996 9.08452357 27.08334988 9.0625 28.625 C9.05347656 29.44226563 9.04445312 30.25953125 9.03515625 31.1015625 C9.02355469 31.72804688 9.01195312 32.35453125 9 33 C11.31 33.66 13.62 34.32 16 35 C15.505 35.99 15.505 35.99 15 37 C14.01 37 13.02 37 12 37 C11.9175 37.9075 11.835 38.815 11.75 39.75 C10.85493446 43.62861732 10.20638777 44.67223648 7 47 C3.98764946 47.58346782 1.02507971 47.53678357 -2.03515625 47.49609375 C-2.91022324 47.49754898 -3.78529022 47.49900421 -4.68687439 47.50050354 C-6.53355241 47.49884598 -8.38024444 47.48730062 -10.22680664 47.46655273 C-13.05609638 47.43756561 -15.88351589 47.44595258 -18.71289062 47.45898438 C-20.50782162 47.45274777 -22.30274669 47.44435744 -24.09765625 47.43359375 C-25.3680349 47.43799721 -25.3680349 47.43799721 -26.66407776 47.44248962 C-32.55085011 47.34769524 -32.55085011 47.34769524 -34.67259216 45.70521545 C-36.70792049 43.09059076 -37.22069562 40.17716402 -38 37 C-39.32 37 -40.64 37 -42 37 C-41.67 36.01 -41.34 35.02 -41 34 C-38.69 34 -36.38 34 -34 34 C-34.0825 32.96875 -34.165 31.9375 -34.25 30.875 C-33.95947619 26.37188097 -32.90441261 24.40231192 -30 21 C-29.01 21 -28.02 21 -27 21 C-27.66 22.32 -28.32 23.64 -29 25 C-29.99 27.97 -30.98 30.94 -32 34 C-19.46 34 -6.92 34 6 34 C6 30.37 6 26.74 6 23 C5.278125 23.495 4.55625 23.99 3.8125 24.5 C0.801443 26.10589707 -0.65585985 26.52802213 -4 26 C-5.8125 24.875 -5.8125 24.875 -7 23 C-7 21.02 -7 19.04 -7 17 C-11.62 17.33 -16.24 17.66 -21 18 C-21 17.01 -21 16.02 -21 15 C-19.7625 14.773125 -18.525 14.54625 -17.25 14.3125 C-12.95370173 13.26664105 -11.6992474 11.48289987 -9 8 C-6.67126625 7.31744011 -4.33817209 6.64949225 -2 6 C-0.4201907 3.80200446 0 2.6847018 0 0 Z " fill="#241E0B" transform="translate(74,43)"/>
<path d="M0 0 C1.43169777 -0.00956978 1.43169777 -0.00956978 2.89231873 -0.01933289 C4.45007774 -0.02100212 4.45007774 -0.02100212 6.03930664 -0.02270508 C7.0985585 -0.02603348 8.15781036 -0.02936188 9.24916077 -0.03279114 C11.49455327 -0.03786502 13.73995334 -0.04019932 15.98535156 -0.04003906 C19.43119667 -0.04222474 22.87672141 -0.06037354 26.32250977 -0.0793457 C28.49894096 -0.08227961 30.67537368 -0.08426443 32.85180664 -0.08520508 C34.40652931 -0.09598335 34.40652931 -0.09598335 35.99266052 -0.10697937 C36.95027786 -0.10390274 37.9078952 -0.10082611 38.89453125 -0.09765625 C39.73978867 -0.09908127 40.58504608 -0.10050629 41.45591736 -0.10197449 C43.51196289 0.14526367 43.51196289 0.14526367 45.51196289 2.14526367 C45.63696289 4.77026367 45.63696289 4.77026367 45.51196289 7.14526367 C44.52196289 7.14526367 43.53196289 7.14526367 42.51196289 7.14526367 C42.51196289 5.82526367 42.51196289 4.50526367 42.51196289 3.14526367 C27.66196289 3.14526367 12.81196289 3.14526367 -2.48803711 3.14526367 C-2.15803711 5.45526367 -1.82803711 7.76526367 -1.48803711 10.14526367 C0.49196289 8.82526367 2.47196289 7.50526367 4.51196289 6.14526367 C7.0055786 7.34907815 9.19339372 8.59955089 11.51196289 10.14526367 C11.18196289 12.78526367 10.85196289 15.42526367 10.51196289 18.14526367 C12.16196289 18.14526367 13.81196289 18.14526367 15.51196289 18.14526367 C14.85196289 15.50526367 14.19196289 12.86526367 13.51196289 10.14526367 C18.13696289 6.14526367 18.13696289 6.14526367 21.51196289 6.14526367 C21.84196289 6.80526367 22.17196289 7.46526367 22.51196289 8.14526367 C23.50196289 8.47526367 24.49196289 8.80526367 25.51196289 9.14526367 C25.18196289 11.78526367 24.85196289 14.42526367 24.51196289 17.14526367 C22.53196289 17.14526367 20.55196289 17.14526367 18.51196289 17.14526367 C18.51196289 18.46526367 18.51196289 19.78526367 18.51196289 21.14526367 C18.51196289 22.13526367 18.51196289 23.12526367 18.51196289 24.14526367 C19.17196289 24.14526367 19.83196289 24.14526367 20.51196289 24.14526367 C20.84196289 23.15526367 21.17196289 22.16526367 21.51196289 21.14526367 C28.44196289 21.14526367 35.37196289 21.14526367 42.51196289 21.14526367 C42.51196289 19.49526367 42.51196289 17.84526367 42.51196289 16.14526367 C43.50196289 16.14526367 44.49196289 16.14526367 45.51196289 16.14526367 C45.55450645 18.14481113 45.55277072 20.14568003 45.51196289 22.14526367 C44.51196289 23.14526367 44.51196289 23.14526367 42.37890625 23.25878906 C41.46246338 23.25355225 40.54602051 23.24831543 39.60180664 23.24291992 C38.61245117 23.23969727 37.6230957 23.23647461 36.60375977 23.2331543 C35.5628418 23.22477539 34.52192383 23.21639648 33.44946289 23.20776367 C32.40467773 23.20325195 31.35989258 23.19874023 30.28344727 23.1940918 C27.69289629 23.1822628 25.1024573 23.16578056 22.51196289 23.14526367 C21.52196289 25.62026367 21.52196289 25.62026367 20.51196289 28.14526367 C19.85196289 28.14526367 19.19196289 28.14526367 18.51196289 28.14526367 C17.85196289 26.49526367 17.19196289 24.84526367 16.51196289 23.14526367 C15.88104736 23.15050049 15.25013184 23.1557373 14.60009766 23.16113281 C11.75822942 23.18184193 8.91637701 23.19490433 6.07446289 23.20776367 C4.58462891 23.22033203 4.58462891 23.22033203 3.06469727 23.2331543 C2.12045898 23.23637695 1.1762207 23.23959961 0.20336914 23.24291992 C-1.10845337 23.25077515 -1.10845337 23.25077515 -2.44677734 23.25878906 C-4.48803711 23.14526367 -4.48803711 23.14526367 -5.48803711 22.14526367 C-5.58703234 20.59570808 -5.61883235 19.04172695 -5.62084961 17.48901367 C-5.62213867 16.54928711 -5.62342773 15.60956055 -5.62475586 14.64135742 C-5.62088867 13.65264648 -5.61702148 12.66393555 -5.61303711 11.64526367 C-5.6169043 10.65655273 -5.62077148 9.6678418 -5.62475586 8.64916992 C-5.6234668 7.70944336 -5.62217773 6.7697168 -5.62084961 5.80151367 C-5.61972168 4.93333008 -5.61859375 4.06514648 -5.61743164 3.1706543 C-5.373154 -0.65298209 -3.33789968 0.01506687 0 0 Z " fill="#63A7C7" transform="translate(41.488037109375,12.854736328125)"/>
<path d="M0 0 C14.85 0 29.7 0 45 0 C48 9 48 9 45 18 C34.605 18.495 34.605 18.495 24 19 C23.67 19.66 23.34 20.32 23 21 C22.34 21 21.68 21 21 21 C21 20.01 21 19.02 21 18 C14.4 18 7.8 18 1 18 C1 17.67 1 17.34 1 17 C7.27 16.67 13.54 16.34 20 16 C20.33 15.34 20.66 14.68 21 14 C22.98 14 24.96 14 27 14 C27.33 11.36 27.66 8.72 28 6 C26.68 5.67 25.36 5.34 24 5 C24 4.34 24 3.68 24 3 C21.69 4.32 19.38 5.64 17 7 C17.15597656 7.56589844 17.31195313 8.13179687 17.47265625 8.71484375 C17.76462891 9.81505859 17.76462891 9.81505859 18.0625 10.9375 C18.35833984 12.03384766 18.35833984 12.03384766 18.66015625 13.15234375 C18.77230469 13.76207031 18.88445313 14.37179688 19 15 C18 16 18 16 14.9375 16.0625 C13.968125 16.041875 12.99875 16.02125 12 16 C11.92572162 12.65747276 11.93453047 10.1964086 13 7 C11.68 6.01 10.36 5.02 9 4 C8.4225 4.309375 7.845 4.61875 7.25 4.9375 C5 6 5 6 2.8125 6.5 C2.214375 6.665 1.61625 6.83 1 7 C0.67 7.66 0.34 8.32 0 9 C0 6.03 0 3.06 0 0 Z " fill="#6BB6D9" transform="translate(39,16)"/>
<path d="M0 0 C5.94 0 11.88 0 18 0 C18.66 2.31 19.32 4.62 20 7 C20.33 7.33 20.66 7.66 21 8 C24.49734228 7.61140641 27.65788261 7.11403913 31 6 C31 9.63 31 13.26 31 17 C18.46 17 5.92 17 -7 17 C-6.02429085 10.17003598 -5.72001919 8.92002538 -2 4 C-2.66 3.67 -3.32 3.34 -4 3 C-3.01 3 -2.02 3 -1 3 C-0.67 2.01 -0.34 1.02 0 0 Z " fill="#EFC121" transform="translate(49,60)"/>
<path d="M0 0 C0.66 0 1.32 0 2 0 C2 35.97 2 71.94 2 109 C-20.44 109 -42.88 109 -66 109 C-66 108.01 -66 107.02 -66 106 C-62.50263099 104.83421033 -59.44372557 104.9384608 -55.8125 105 C-47.271507 105.05590135 -38.73417136 104.94529919 -30.19589233 104.73754883 C-28.73150721 104.70417253 -27.2669895 104.67618079 -25.80239868 104.65356445 C-23.72183567 104.6203851 -21.64254015 104.56833263 -19.5625 104.51171875 C-18.34691406 104.48553467 -17.13132813 104.45935059 -15.87890625 104.43237305 C-14.45384766 104.21834839 -14.45384766 104.21834839 -13 104 C-12.01 102.515 -12.01 102.515 -11 101 C-11 102.32 -11 103.64 -11 105 C-7.37 105.33 -3.74 105.66 0 106 C0 71.02 0 36.04 0 0 Z " fill="#FDFBF9" transform="translate(99,11)"/>
<path d="M0 0 C14.52 0 29.04 0 44 0 C43.34 2.31 42.68 4.62 42 7 C41.195625 7.12375 40.39125 7.2475 39.5625 7.375 C38.716875 7.58125 37.87125 7.7875 37 8 C36.67 8.66 36.34 9.32 36 10 C35.11828125 9.84144531 34.2365625 9.68289062 33.328125 9.51953125 C29.79165752 9.01114179 26.30521776 8.893458 22.734375 8.82421875 C21.59742187 8.80037109 20.46046875 8.77652344 19.2890625 8.75195312 C16.91425072 8.70870324 14.53918882 8.67760775 12.1640625 8.65820312 C11.03226563 8.63048828 9.90046875 8.60277344 8.734375 8.57421875 C7.19088379 8.55234497 7.19088379 8.55234497 5.61621094 8.5300293 C3 8 3 8 1.14160156 6.21411133 C0 4 0 4 0 0 Z " fill="#13BC6B" transform="translate(39,80)"/>
<path d="M0 0 C14.85 0 29.7 0 45 0 C45 1.65 45 3.3 45 5 C44.505 3.02 44.505 3.02 44 1 C42.35 1.33 40.7 1.66 39 2 C39.66 2.99 40.32 3.98 41 5 C40.0925 4.79375 39.185 4.5875 38.25 4.375 C34.74725253 3.67071632 34.74725253 3.67071632 31 6 C31.66 8.97 32.32 11.94 33 15 C32.34 15 31.68 15 31 15 C30.34 13.68 29.68 12.36 29 11 C28.01 12.485 28.01 12.485 27 14 C27.33 11.36 27.66 8.72 28 6 C26.68 5.67 25.36 5.34 24 5 C24 4.34 24 3.68 24 3 C21.69 4.32 19.38 5.64 17 7 C17.15597656 7.56589844 17.31195313 8.13179687 17.47265625 8.71484375 C17.76462891 9.81505859 17.76462891 9.81505859 18.0625 10.9375 C18.35833984 12.03384766 18.35833984 12.03384766 18.66015625 13.15234375 C18.77230469 13.76207031 18.88445313 14.37179688 19 15 C18 16 18 16 14.9375 16.0625 C13.968125 16.041875 12.99875 16.02125 12 16 C11.92572162 12.65747276 11.93453047 10.1964086 13 7 C11.68 6.01 10.36 5.02 9 4 C8.4225 4.309375 7.845 4.61875 7.25 4.9375 C5 6 5 6 2.8125 6.5 C2.214375 6.665 1.61625 6.83 1 7 C0.67 7.66 0.34 8.32 0 9 C0 6.03 0 3.06 0 0 Z " fill="#79CDEF" transform="translate(39,16)"/>
<path d="M0 0 C1.43169777 -0.00956978 1.43169777 -0.00956978 2.89231873 -0.01933289 C4.45007774 -0.02100212 4.45007774 -0.02100212 6.03930664 -0.02270508 C7.0985585 -0.02603348 8.15781036 -0.02936188 9.24916077 -0.03279114 C11.49455327 -0.03786502 13.73995334 -0.04019932 15.98535156 -0.04003906 C19.43119667 -0.04222474 22.87672141 -0.06037354 26.32250977 -0.0793457 C28.49894096 -0.08227961 30.67537368 -0.08426443 32.85180664 -0.08520508 C34.40652931 -0.09598335 34.40652931 -0.09598335 35.99266052 -0.10697937 C36.95027786 -0.10390274 37.9078952 -0.10082611 38.89453125 -0.09765625 C39.73978867 -0.09908127 40.58504608 -0.10050629 41.45591736 -0.10197449 C43.51196289 0.14526367 43.51196289 0.14526367 45.51196289 2.14526367 C45.63696289 4.77026367 45.63696289 4.77026367 45.51196289 7.14526367 C44.52196289 7.14526367 43.53196289 7.14526367 42.51196289 7.14526367 C42.51196289 5.49526367 42.51196289 3.84526367 42.51196289 2.14526367 C27.33196289 2.14526367 12.15196289 2.14526367 -3.48803711 2.14526367 C-3.48803711 8.41526367 -3.48803711 14.68526367 -3.48803711 21.14526367 C3.77196289 21.14526367 11.03196289 21.14526367 18.51196289 21.14526367 C18.51196289 22.13526367 18.51196289 23.12526367 18.51196289 24.14526367 C19.17196289 24.14526367 19.83196289 24.14526367 20.51196289 24.14526367 C20.84196289 23.15526367 21.17196289 22.16526367 21.51196289 21.14526367 C28.44196289 21.14526367 35.37196289 21.14526367 42.51196289 21.14526367 C42.51196289 19.49526367 42.51196289 17.84526367 42.51196289 16.14526367 C43.50196289 16.14526367 44.49196289 16.14526367 45.51196289 16.14526367 C45.55450645 18.14481113 45.55277072 20.14568003 45.51196289 22.14526367 C44.51196289 23.14526367 44.51196289 23.14526367 42.37890625 23.25878906 C41.46246338 23.25355225 40.54602051 23.24831543 39.60180664 23.24291992 C38.61245117 23.23969727 37.6230957 23.23647461 36.60375977 23.2331543 C35.5628418 23.22477539 34.52192383 23.21639648 33.44946289 23.20776367 C32.40467773 23.20325195 31.35989258 23.19874023 30.28344727 23.1940918 C27.69289629 23.1822628 25.1024573 23.16578056 22.51196289 23.14526367 C21.52196289 25.62026367 21.52196289 25.62026367 20.51196289 28.14526367 C19.85196289 28.14526367 19.19196289 28.14526367 18.51196289 28.14526367 C17.85196289 26.49526367 17.19196289 24.84526367 16.51196289 23.14526367 C15.88104736 23.15050049 15.25013184 23.1557373 14.60009766 23.16113281 C11.75822942 23.18184193 8.91637701 23.19490433 6.07446289 23.20776367 C4.58462891 23.22033203 4.58462891 23.22033203 3.06469727 23.2331543 C2.12045898 23.23637695 1.1762207 23.23959961 0.20336914 23.24291992 C-1.10845337 23.25077515 -1.10845337 23.25077515 -2.44677734 23.25878906 C-4.48803711 23.14526367 -4.48803711 23.14526367 -5.48803711 22.14526367 C-5.58703234 20.59570808 -5.61883235 19.04172695 -5.62084961 17.48901367 C-5.62213867 16.54928711 -5.62342773 15.60956055 -5.62475586 14.64135742 C-5.62088867 13.65264648 -5.61702148 12.66393555 -5.61303711 11.64526367 C-5.6169043 10.65655273 -5.62077148 9.6678418 -5.62475586 8.64916992 C-5.6234668 7.70944336 -5.62217773 6.7697168 -5.62084961 5.80151367 C-5.61972168 4.93333008 -5.61859375 4.06514648 -5.61743164 3.1706543 C-5.373154 -0.65298209 -3.33789968 0.01506687 0 0 Z " fill="#030404" transform="translate(41.488037109375,12.854736328125)"/>
<path d="M0 0 C1.9375 0.3125 1.9375 0.3125 4 1 C4.33 1.99 4.66 2.98 5 4 C4.01 4 3.02 4 2 4 C1.14349347 6.80045046 1.14349347 6.80045046 1 10 C1.66 10.639375 2.32 11.27875 3 11.9375 C3.66 12.618125 4.32 13.29875 5 14 C4.9375 17.625 4.9375 17.625 4 21 C1 23 1 23 -1.5 22.875 C-4 22 -4 22 -5.20703125 19.9609375 C-6.94004838 17.63569333 -6.94004838 17.63569333 -10.35546875 17.609375 C-11.62003906 17.65578125 -12.88460937 17.7021875 -14.1875 17.75 C-16.09595703 17.80414063 -16.09595703 17.80414063 -18.04296875 17.859375 C-19.50669922 17.92898437 -19.50669922 17.92898437 -21 18 C-21 17.01 -21 16.02 -21 15 C-19.14375 14.6596875 -19.14375 14.6596875 -17.25 14.3125 C-12.95370173 13.26664105 -11.6992474 11.48289987 -9 8 C-6.67126625 7.31744011 -4.33817209 6.64949225 -2 6 C-0.4201907 3.80200446 0 2.6847018 0 0 Z " fill="#16130C" transform="translate(74,43)"/>
<path d="M0 0 C1.98 0 3.96 0 6 0 C6 0.66 6 1.32 6 2 C20.19 1.67 34.38 1.34 49 1 C49 0.67 49 0.34 49 0 C51.31 0 53.62 0 56 0 C56 0.99 56 1.98 56 3 C55.01 3 54.02 3 53 3 C52.9175 3.9075 52.835 4.815 52.75 5.75 C51.89059651 9.47408179 51.07709473 10.77765381 48 13 C45.25 13.25 45.25 13.25 43 13 C43 12.34 43 11.68 43 11 C43.78375 10.79375 44.5675 10.5875 45.375 10.375 C48.77756788 8.9794353 48.77756788 8.9794353 50 3 C35.48 3 20.96 3 6 3 C6.99 5.31 7.98 7.62 9 10 C21.87 10.495 21.87 10.495 35 11 C35 11.66 35 12.32 35 13 C30.56262288 13.08690253 26.12546366 13.14035926 21.6875 13.1875 C19.79354492 13.22520508 19.79354492 13.22520508 17.86132812 13.26367188 C16.04858398 13.27817383 16.04858398 13.27817383 14.19921875 13.29296875 C12.52605591 13.31653442 12.52605591 13.31653442 10.8190918 13.34057617 C8 13 8 13 6.18676758 11.7121582 C4.33798228 9.04490223 3.7653972 6.12046549 3 3 C1.68 3 0.36 3 -1 3 C-0.67 2.01 -0.34 1.02 0 0 Z " fill="#03120B" transform="translate(33,77)"/>
<path d="M0 0 C7.875 5.875 7.875 5.875 9 7 C9.07226502 8.85287502 9.0838122 10.70833878 9.0625 12.5625 C9.05347656 13.57441406 9.04445313 14.58632812 9.03515625 15.62890625 C9.02355469 16.41136719 9.01195313 17.19382812 9 18 C6.03 18 3.06 18 0 18 C0 12.06 0 6.12 0 0 Z " fill="#FA5D3D" transform="translate(108,77)"/>
<path d="M0 0 C6.65217391 3.32608696 6.65217391 3.32608696 9 6 C9.4326446 9.70151494 9.28780172 13.29055566 9 17 C6.03 17 3.06 17 0 17 C0 11.39 0 5.78 0 0 Z " fill="#EBC220" transform="translate(108,56)"/>
<path d="M0 0 C1.65 0.99 3.3 1.98 5 3 C5.75796875 3.43957031 6.5159375 3.87914062 7.296875 4.33203125 C9 6 9 6 9.390625 8.69921875 C9.32101563 10.17841797 9.32101563 10.17841797 9.25 11.6875 C9.21390625 12.68136719 9.1778125 13.67523438 9.140625 14.69921875 C9.07101563 15.83810547 9.07101563 15.83810547 9 17 C6.03 17 3.06 17 0 17 C0 11.39 0 5.78 0 0 Z " fill="#74C5E9" transform="translate(108,34)"/>
<path d="M0 0 C4.5 3 4.5 3 9 6 C9.29296875 8.6015625 9.29296875 8.6015625 9.1875 11.625 C9.16042969 12.62789062 9.13335937 13.63078125 9.10546875 14.6640625 C9.07066406 15.43492188 9.03585938 16.20578125 9 17 C6.03 17 3.06 17 0 17 C0 11.39 0 5.78 0 0 Z " fill="#4E4B47" transform="translate(108,99)"/>
<path d="M0 0 C4.5 3 4.5 3 9 6 C9.29296875 8.6015625 9.29296875 8.6015625 9.1875 11.625 C9.16042969 12.62789062 9.13335937 13.63078125 9.10546875 14.6640625 C9.07066406 15.43492188 9.03585938 16.20578125 9 17 C6.03 17 3.06 17 0 17 C0 11.39 0 5.78 0 0 Z " fill="#13C470" transform="translate(108,12)"/>
<path d="M0 0 C1.65 0 3.3 0 5 0 C4.505 0.350625 4.01 0.70125 3.5 1.0625 C1.28579794 3.51412983 1.28579794 3.51412983 2 10 C30.05 10.33 58.1 10.66 87 11 C87 11.33 87 11.66 87 12 C58.29 12 29.58 12 0 12 C0 8.04 0 4.08 0 0 Z " fill="#FFFFF6" transform="translate(17,111)"/>
<path d="M0 0 C0.33 0.66 0.66 1.32 1 2 C1.99 2.33 2.98 2.66 4 3 C3.67 5.64 3.34 8.28 3 11 C0.36 11.33 -2.28 11.66 -5 12 C-6.5625 9.1875 -6.5625 9.1875 -8 6 C-6.56530686 1.69592058 -4.58010985 0 0 0 Z " fill="#111719" transform="translate(63,19)"/>
<path d="M0 0 C1.9375 0.8125 1.9375 0.8125 4.9375 2.8125 C4.6075 5.4525 4.2775 8.0925 3.9375 10.8125 C0.9675 10.8125 -2.0025 10.8125 -5.0625 10.8125 C-5.3925 8.1725 -5.7225 5.5325 -6.0625 2.8125 C-2.64335809 -0.24030528 -2.64335809 -0.24030528 0 0 Z " fill="#131617" transform="translate(76.0625,19.1875)"/>
<path d="M0 0 C14.52 0 29.04 0 44 0 C43.34 1.32 42.68 2.64 42 4 C42 3.34 42 2.68 42 2 C28.8 2 15.6 2 2 2 C2 2.66 2 3.32 2 4 C1.34 4 0.68 4 0 4 C0 2.68 0 1.36 0 0 Z " fill="#14C872" transform="translate(39,80)"/>
<path d="M0 0 C2.49361571 1.20381448 4.68143083 2.45428722 7 4 C6.1875 7.4375 6.1875 7.4375 5 11 C1.52176885 12.15941038 -0.45895578 11.70820884 -4 11 C-4.8125 7.75 -4.8125 7.75 -5 4 C-2.5625 1.5625 -2.5625 1.5625 0 0 Z " fill="#070A09" transform="translate(46,19)"/>
<path d="M0 0 C0.33 0.33 0.66 0.66 1 1 C0.75 4.4375 0.75 4.4375 0 8 C-3 10 -3 10 -5.6875 9.625 C-6.450625 9.41875 -7.21375 9.2125 -8 9 C-8.75 6.75 -8.75 6.75 -9 4 C-6.41413852 0.32012021 -4.44565581 -0.6007643 0 0 Z " fill="#ECC320" transform="translate(78,56)"/>
<path d="M0 0 C0.66 0.33 1.32 0.66 2 1 C2.04254356 2.99954746 2.04080783 5.00041636 2 7 C1 8 1 8 -1.13305664 8.11352539 C-2.04949951 8.10828857 -2.96594238 8.10305176 -3.91015625 8.09765625 C-4.89951172 8.09443359 -5.88886719 8.09121094 -6.90820312 8.08789062 C-7.94912109 8.07951172 -8.99003906 8.07113281 -10.0625 8.0625 C-11.10728516 8.05798828 -12.15207031 8.05347656 -13.22851562 8.04882812 C-15.8190666 8.03699913 -18.40950559 8.02051689 -21 8 C-21.33 8.66 -21.66 9.32 -22 10 C-22 8.68 -22 7.36 -22 6 C-15.07 6 -8.14 6 -1 6 C-1 4.35 -1 2.7 -1 1 C-0.67 0.67 -0.34 0.34 0 0 Z " fill="#0A0C0D" transform="translate(85,28)"/>
<path d="M0 0 C2.475 0.99 2.475 0.99 5 2 C4.21625 2.763125 3.4325 3.52625 2.625 4.3125 C-0.07257717 6.90891805 -0.07257717 6.90891805 -2 10 C-1.34 10 -0.68 10 0 10 C-0.33 11.98 -0.66 13.96 -1 16 C-1.33 14.68 -1.66 13.36 -2 12 C-2.99 12.495 -2.99 12.495 -4 13 C-4.65213292 15.02463255 -4.65213292 15.02463255 -5 17 C-5.66 17 -6.32 17 -7 17 C-6.54996653 11.37458159 -5.31558515 8.38512875 -2 4 C-2.66 3.67 -3.32 3.34 -4 3 C-3.01 3 -2.02 3 -1 3 C-0.67 2.01 -0.34 1.02 0 0 Z " fill="#F1C21F" transform="translate(49,60)"/>
<path d="M0 0 C0.33 0 0.66 0 1 0 C1 4.62 1 9.24 1 14 C2.98 14 4.96 14 7 14 C6.67 10.7 6.34 7.4 6 4 C6.99 4.33 7.98 4.66 9 5 C9 8.63 9 12.26 9 16 C6.03 16 3.06 16 0 16 C0 10.72 0 5.44 0 0 Z " fill="#DF5B3C" transform="translate(108,79)"/>
<path d="M0 0 C1.9375 0.8125 1.9375 0.8125 4 2 C4.33 2.99 4.66 3.98 5 5 C3.68 5 2.36 5 1 5 C0.67 5.99 0.34 6.98 0 8 C-0.66 8 -1.32 8 -2 8 C-2 9.98 -2 11.96 -2 14 C-2.99 14.495 -2.99 14.495 -4 15 C-4.66 12.36 -5.32 9.72 -6 7 C-5.195625 6.5875 -4.39125 6.175 -3.5625 5.75 C-0.85890282 4.26547669 -0.85890282 4.26547669 -0.1875 1.8125 C-0.125625 1.214375 -0.06375 0.61625 0 0 Z " fill="#110F0B" transform="translate(83,47)"/>
<path d="M0 0 C0.66 0 1.32 0 2 0 C2 1.32 2 2.64 2 4 C12.56 4 23.12 4 34 4 C34 4.33 34 4.66 34 5 C22.45 5 10.9 5 -1 5 C-0.67 3.35 -0.34 1.7 0 0 Z " fill="#FDDC3D" transform="translate(45,72)"/>
<path d="M0 0 C2.31 0 4.62 0 7 0 C8.32 2.64 9.64 5.28 11 8 C10.01 9.32 9.02 10.64 8 12 C7.34 11.01 6.68 10.02 6 9 C6.66 9 7.32 9 8 9 C8 8.01 8 7.02 8 6 C7.34 6 6.68 6 6 6 C5.67 6.66 5.34 7.32 5 8 C5 7.01 5 6.02 5 5 C4.34 4.67 3.68 4.34 3 4 C1.96854629 2.69084721 0.96457834 1.35917857 0 0 Z " fill="#61A7C9" transform="translate(76,17)"/>
<path d="M0 0 C0.66 0 1.32 0 2 0 C1.814375 0.639375 1.62875 1.27875 1.4375 1.9375 C1.293125 2.618125 1.14875 3.29875 1 4 C1.33 4.33 1.66 4.66 2 5 C2 6.65 2 8.3 2 10 C-1.3 10 -4.6 10 -8 10 C-6 8 -6 8 -3 7 C-1.28432339 3.49705129 -1.28432339 3.49705129 0 0 Z " fill="#7BD0F6" transform="translate(82,23)"/>
<path d="M0 0 C0.99 0.33 1.98 0.66 3 1 C2.34 1.66 1.68 2.32 1 3 C1.99 3.99 2.98 4.98 4 6 C2.625 7.5 2.625 7.5 1 9 C0.34 9 -0.32 9 -1 9 C-1.66 9.66 -2.32 10.32 -3 11 C-3.33 8.36 -3.66 5.72 -4 3 C-2.1875 1.4375 -2.1875 1.4375 0 0 Z " fill="#3E4244" transform="translate(74,19)"/>
<path d="M0 0 C0.33 0.99 0.66 1.98 1 3 C0.01 4.485 0.01 4.485 -1 6 C-3.8203125 6.29296875 -3.8203125 6.29296875 -7.125 6.1875 C-8.76855469 6.14689453 -8.76855469 6.14689453 -10.4453125 6.10546875 C-11.70988281 6.05326172 -11.70988281 6.05326172 -13 6 C-13.33 5.01 -13.66 4.02 -14 3 C-13.07316406 2.95101562 -12.14632812 2.90203125 -11.19140625 2.8515625 C-9.99386719 2.77679688 -8.79632813 2.70203125 -7.5625 2.625 C-6.36753906 2.55539063 -5.17257813 2.48578125 -3.94140625 2.4140625 C-2.97074219 2.27742188 -2.00007813 2.14078125 -1 2 C-0.67 1.34 -0.34 0.68 0 0 Z " fill="#FAF4EB" transform="translate(49,99)"/>
<path d="M0 0 C0.33 0 0.66 0 1 0 C1.12375 1.11375 1.2475 2.2275 1.375 3.375 C1.6465813 7.03103677 1.6465813 7.03103677 4 9 C4.125 11.625 4.125 11.625 4 14 C5.32 14.33 6.64 14.66 8 15 C7.05125 15.12375 6.1025 15.2475 5.125 15.375 C1.91332809 15.71687177 1.91332809 15.71687177 0 18 C0 12.06 0 6.12 0 0 Z " fill="#68B1D2" transform="translate(38,16)"/>
<path d="M0 0 C0 0.66 0 1.32 0 2 C0.66 2.33 1.32 2.66 2 3 C1.67 3.99 1.34 4.98 1 6 C-0.98 6 -2.96 6 -5 6 C-5.33 6.66 -5.66 7.32 -6 8 C-6 5.69 -6 3.38 -6 1 C-3.92446352 0.4465236 -2.15634036 0 0 0 Z " fill="#2E2E19" transform="translate(48,22)"/>
<path d="M0 0 C0 0.66 0 1.32 0 2 C-1.216875 2.2475 -2.43375 2.495 -3.6875 2.75 C-7.60653217 3.70721494 -9.95788466 5.31578058 -13 8 C-13.66 8 -14.32 8 -15 8 C-13.71111971 5.1248055 -12.46733017 2.9928436 -10 1 C-6.71389396 -0.24645402 -3.48082147 -0.07910958 0 0 Z " fill="#F9E8BD" transform="translate(62,62)"/>
<path d="M0 0 C2.97 0.33 5.94 0.66 9 1 C7.72536799 3.54926402 6.56582957 3.86801636 4 5 C3.01 5.33 2.02 5.66 1 6 C0 5 0 5 -0.0625 2.4375 C-0.041875 1.633125 -0.02125 0.82875 0 0 Z " fill="#6EBBDD" transform="translate(40,17)"/>
<path d="M0 0 C0.33 0.66 0.66 1.32 1 2 C3.52733235 2.65555119 3.52733235 2.65555119 6 3 C6 3.33 6 3.66 6 4 C1.38 4.33 -3.24 4.66 -8 5 C-8 4.01 -8 3.02 -8 2 C-5.36 1.34 -2.72 0.68 0 0 Z " fill="#352E1C" transform="translate(61,56)"/>
<path d="M0 0 C1.98 0 3.96 0 6 0 C6.38218767 1.65614657 6.71395102 3.32457024 7 5 C6 6 6 6 2.9375 6.0625 C1.4834375 6.0315625 1.4834375 6.0315625 0 6 C0 4.02 0 2.04 0 0 Z " fill="#6BB5DA" transform="translate(51,26)"/>
<path d="M0 0 C0.3403125 0.928125 0.3403125 0.928125 0.6875 1.875 C2.37929835 4.61410209 3.99244161 5.05024472 7 6 C6.67 6.66 6.34 7.32 6 8 C3.625 8.125 3.625 8.125 1 8 C-1 6 -1 6 -1.1875 3.4375 C-1 1 -1 1 0 0 Z " fill="#0F0C02" transform="translate(68,60)"/>
<path d="M0 0 C2.64 0 5.28 0 8 0 C8 0.99 8 1.98 8 3 C5.36 3 2.72 3 0 3 C0 2.01 0 1.02 0 0 Z " fill="#FCF8F6" transform="translate(22,117)"/>
<path d="M0 0 C0.66 0 1.32 0 2 0 C2.12375 0.969375 2.2475 1.93875 2.375 2.9375 C2.684375 4.4534375 2.684375 4.4534375 3 6 C3.66 6.33 4.32 6.66 5 7 C4.67 7.66 4.34 8.32 4 9 C3.01 8.67 2.02 8.34 1 8 C-0.1875 4.4375 -0.1875 4.4375 -1 1 C-0.67 0.67 -0.34 0.34 0 0 Z " fill="#080F11" transform="translate(56,22)"/>
<path d="M0 0 C1.98 0 3.96 0 6 0 C5.67 1.65 5.34 3.3 5 5 C4.34 5 3.68 5 3 5 C3 4.34 3 3.68 3 3 C1.68 3 0.36 3 -1 3 C-0.67 2.01 -0.34 1.02 0 0 Z " fill="#242220" transform="translate(33,77)"/>
<path d="M0 0 C0.33 0 0.66 0 1 0 C1 1.65 1 3.3 1 5 C-1.64 5 -4.28 5 -7 5 C-6.67 4.01 -6.34 3.02 -6 2 C-4.35 2.33 -2.7 2.66 -1 3 C-0.67 2.01 -0.34 1.02 0 0 Z " fill="#040607" transform="translate(79,25)"/>
<path d="M0 0 C2.31 0 4.62 0 7 0 C7 0.99 7 1.98 7 3 C6.01 3 5.02 3 4 3 C3.67 3.99 3.34 4.98 3 6 C2.01 4.02 1.02 2.04 0 0 Z " fill="#2C2927" transform="translate(82,77)"/>
<path d="M0 0 C2.475 0.99 2.475 0.99 5 2 C3.35 3.32 1.7 4.64 0 6 C-1.32 5.01 -2.64 4.02 -4 3 C-3.01 3 -2.02 3 -1 3 C-0.67 2.01 -0.34 1.02 0 0 Z " fill="#B79626" transform="translate(49,60)"/>
<path d="M0 0 C1.65 0 3.3 0 5 0 C4.505 0.33 4.01 0.66 3.5 1 C1.11820439 4.17572747 1.80831774 7.10246066 2 11 C1.01 11.495 1.01 11.495 0 12 C0 8.04 0 4.08 0 0 Z " fill="#F9F0E6" transform="translate(17,111)"/>
<path d="M0 0 C0.99 0 1.98 0 3 0 C1.55746343 3.36591866 -0.33264727 5.51047079 -3 8 C-3 4.38462395 -2.10770759 2.88834003 0 0 Z " fill="#211E17" transform="translate(44,64)"/>
<path d="M0 0 C0.763125 0.0825 1.52625 0.165 2.3125 0.25 C2.3125 0.91 2.3125 1.57 2.3125 2.25 C-0.91541555 4.4019437 -1.97150809 4.45086443 -5.6875 4.25 C-3.34903846 0.31153846 -3.34903846 0.31153846 0 0 Z " fill="#EECA21" transform="translate(69.6875,52.75)"/>
<path d="M0 0 C0.66 0 1.32 0 2 0 C3.6875 2.3125 3.6875 2.3125 5 5 C4.67 5.99 4.34 6.98 4 8 C1.10067643 5.60490662 0.49831724 3.68754757 0 0 Z " fill="#0A0D0B" transform="translate(37,82)"/>
<path d="M0 0 C0.66 0 1.32 0 2 0 C1.34 2.97 0.68 5.94 0 9 C-0.66 9 -1.32 9 -2 9 C-1.125 2.25 -1.125 2.25 0 0 Z " fill="#DEBB1B" transform="translate(44,68)"/>
<path d="M0 0 C0.33 0.66 0.66 1.32 1 2 C1.66 2 2.32 2 3 2 C3 3.98 3 5.96 3 8 C2.01 8 1.02 8 0 8 C0 5.36 0 2.72 0 0 Z " fill="#322A0F" transform="translate(80,68)"/>
<path d="M0 0 C1.9375 0.8125 1.9375 0.8125 4 2 C4.33 2.99 4.66 3.98 5 5 C3.35 4.67 1.7 4.34 0 4 C0 2.68 0 1.36 0 0 Z " fill="#252220" transform="translate(83,47)"/>
<path d="M0 0 C0.66 0 1.32 0 2 0 C2 0.66 2 1.32 2 2 C2.66 2.33 3.32 2.66 4 3 C3.67 3.66 3.34 4.32 3 5 C1.68 5 0.36 5 -1 5 C-1.33 4.01 -1.66 3.02 -2 2 C-1.34 2 -0.68 2 0 2 C0 1.34 0 0.68 0 0 Z " fill="#E5C721" transform="translate(46,22)"/>
<path d="M0 0 C0.99 0.99 1.98 1.98 3 3 C2.67 3.66 2.34 4.32 2 5 C0.68 5 -0.64 5 -2 5 C-1.125 1.125 -1.125 1.125 0 0 Z " fill="#848381" transform="translate(61,22)"/>
</svg>
